<?xml version="1.0" encoding="utf-8"?>
<!-- Generator: Adobe Illustrator 19.2.1, SVG Export Plug-In . SVG Version: 6.00 Build 0)  -->
<svg version="1.1" id="Camada_1" xmlns="http://www.w3.org/2000/svg" xmlns:xlink="http://www.w3.org/1999/xlink" x="0px" y="0px"
	 viewBox="0 0 206.2 81.6" style="enable-background:new 0 0 206.2 81.6;" xml:space="preserve">
<style type="text/css">
	.st0{fill-rule:evenodd;clip-rule:evenodd;fill:#FFFFFF;}
	.st1{fill:none;stroke:#FFFFFF;stroke-width:0.567;stroke-miterlimit:22.926;}
	.st2{fill:none;stroke:#FFFFFF;stroke-width:0.216;stroke-miterlimit:22.926;}
</style>
<path class="st0" d="M70.7,13.1c-8.9-9.6-21.2-13.9-33.1-13C12.3,9.1,6.2,35.7,22.4,53.3c-0.4-0.5-0.7-1-1-1.6
	c-0.1-0.2-0.2-0.4-0.3-0.6C8,32.9,17.9,14.2,33.6,7.4C55.2-2,79.9,15.3,79,38.4c-0.8,19.5-17.1,41.3-35.1,43
	c9.9-0.8,19.5-5.1,26.8-13C85.1,52.9,85.1,28.6,70.7,13.1"/>
<path class="st1" d="M70.7,13.1c-8.9-9.6-21.2-13.9-33.1-13C12.3,9.1,6.2,35.7,22.4,53.3c-0.4-0.5-0.7-1-1-1.6
	c-0.1-0.2-0.2-0.4-0.3-0.6C8,32.9,17.9,14.2,33.6,7.4C55.2-2,79.9,15.3,79,38.4c-0.8,19.5-17.1,41.3-35.1,43
	c9.9-0.8,19.5-5.1,26.8-13C85.1,52.9,85.1,28.6,70.7,13.1z"/>
<path class="st0" d="M37.5,0.1c-9.5,0.7-18.8,4.8-26,12.1C-3.9,28-3.9,53.6,11.6,69.4c8.8,9,20.7,13,32.3,12.1
	C69.3,72.6,75.4,45.9,59,28.2c0.4,0.5,0.7,1.1,1,1.6c0.1,0.2,0.2,0.3,0.3,0.5c13.4,18.4,3.5,37.1-12.3,44
	C26.3,83.7,1.6,66.4,2.5,43.2C3.2,23.7,19.5,1.8,37.5,0.1"/>
<path class="st2" d="M37.5,0.1c-9.5,0.7-18.8,4.8-26,12.1C-3.9,28-3.9,53.6,11.6,69.4c8.8,9,20.7,13,32.3,12.1
	C69.3,72.6,75.4,45.9,59,28.2c0.4,0.5,0.7,1.1,1,1.6c0.1,0.2,0.2,0.3,0.3,0.5c13.4,18.4,3.5,37.1-12.3,44
	C26.3,83.7,1.6,66.4,2.5,43.2C3.2,23.7,19.5,1.8,37.5,0.1z"/>
<path class="st2" d="M25.9,25c-8.1,8.9-8.3,19.3-0.5,31.2c-19.2-19.8-9-41.3,8.2-48.8C55.3-2,80,15.3,79.1,38.4
	C78.3,58,62,79.8,43.9,81.5c26.8-9.4,32.2-38.5,12.2-56C45.5,17.1,35.4,17,25.9,25z"/>
<path class="st2" d="M55.7,56.6c8.1-8.9,8.3-19.3,0.5-31.2c19.2,19.8,9,41.3-8.2,48.8C26.3,83.6,1.6,66.4,2.5,43.2
	C3.2,23.6,19.6,1.8,37.6,0.1c-26.8,9.4-32.1,38.5-12.2,56C36.1,64.5,46.2,64.6,55.7,56.6z"/>
<path class="st0" d="M60.5,30.8c-5.9-11.7-20.6-15.8-31.7-8.7c-9.5,6.1-12.9,18.5-7.8,28.6c5.9,11.7,20.6,15.8,31.7,8.7
	C62.2,53.3,65.6,40.9,60.5,30.8"/>
<path class="st2" d="M60.5,30.8c-5.9-11.7-20.6-15.8-31.7-8.7c-9.5,6.1-12.9,18.5-7.8,28.6c5.9,11.7,20.6,15.8,31.7,8.7
	C62.2,53.3,65.6,40.9,60.5,30.8z"/>
<path class="st0" d="M123.8,33.1v7.7h15c0.6-2.2,1.7-4,3.1-5.6c2.7-3,6.4-4.4,11.1-4.4c5.4,0,9.3,1.9,11.9,5.7v-5.6h3.1l0.1,27.7
	h1.4v2.8h-4.5l-0.1-5.9c-2.7,3.9-6.7,5.9-12.2,5.9c-10.7,0-21.4,0-32,0v-2.9c-0.5,0.3-1,0.6-1.5,0.9c-3,1.5-6.6,2.2-10.8,2.2
	c-5.2,0-9.4-0.9-12.6-2.8c-4-2.3-5.9-5.9-5.9-10.7v-1.4H93v1.2c0,7.3,5.2,11,15.5,11c3.6,0,6.5-0.5,8.9-1.6c1.5-0.7,2.6-1.5,3.4-2.6
	v-8c-0.1-0.2-0.3-0.4-0.5-0.5c-0.9-0.9-2.5-1.7-4.7-2.3c-1.2-0.3-4-1-8.5-1.9c-5.2-1.1-8.6-2.1-10.4-3c-3.6-1.8-5.5-4.6-5.5-8.2
	c0-6.9,5.4-10.4,16.1-10.4c6.2,0,10.7,1.3,13.5,4v-3.4h48.8H186c6.7,0,11.7,1.8,15.2,5.5c3.3,3.5,5,8.5,5,14.9
	c0,6.6-2.1,11.7-6.4,15.3c-4,3.3-9.3,5-16.1,5h-14.1V23.6h-45.8v6V33.1z M120.8,30.1c-0.6-2.6-1.9-4.4-3.9-5.5
	c-2.2-1.2-5.4-1.8-9.6-1.8c-8.7,0-13,2.5-13,7.6c0,2.5,1.2,4.3,3.5,5.6c1.6,0.8,4.4,1.6,8.3,2.3c7.3,1.3,12.1,2.7,14.6,4.1l0.1,0.1
	V30.1z M123.8,55.5v3.1h19.8c-0.6-0.5-1.2-1-1.8-1.6c-2.5-2.8-3.8-6.4-3.8-10.8c0-0.9,0-1.7,0.1-2.5h-14.4v2V55.5z M162,37
	c-2.2-2.3-5.2-3.5-9.2-3.5c-3.7,0-6.6,1.2-8.7,3.7c-2,2.3-2.9,5.3-2.9,8.9c0,3.6,1,6.6,2.9,8.8c2.1,2.4,5,3.6,8.7,3.6
	c3.7,0,6.7-1.2,8.9-3.5c2.2-2.4,3.3-5.3,3.3-8.9C165.1,42.3,164,39.3,162,37 M199,28.2c-2.9-3.1-7.3-4.7-13.1-4.7h-13.2v35h11.2
	c6.1,0,10.8-1.5,14.2-4.4c3.4-3,5.1-7.3,5.1-13C203.1,35.4,201.7,31.1,199,28.2"/>
</svg>
