<?xml version="1.0" encoding="utf-8"?>
<!-- Generator: Adobe Illustrator 19.2.1, SVG Export Plug-In . SVG Version: 6.00 Build 0)  -->
<svg version="1.1" id="Camada_1" xmlns="http://www.w3.org/2000/svg" xmlns:xlink="http://www.w3.org/1999/xlink" x="0px" y="0px"
	 viewBox="0 0 212.9 352.6" style="enable-background:new 0 0 212.9 352.6;" xml:space="preserve">
<style type="text/css">
	.st0{fill:#e97d00;}
	.st1{fill:#998675;}
	.st2{fill:#29abe2;}
	.st3{fill:#f1c40f;}
	.st4{fill:#eb5055;}
	.st5{fill:#02a586;}
	.st6{opacity:0.38;}
	.st7{fill:#FFFFFF;}
</style>
<g>
	<path class="st0" d="M93.7,29.1l2.7,2.8c0.4,0.4,1,0.4,1.3,0l2.8-2.7c0.4-0.4,0.4-1,0-1.3l-2.7-2.8c-0.4-0.4-1-0.4-1.3,0l-2.8,2.7
		C93.3,28.1,93.3,28.7,93.7,29.1z"/>
	<path class="st0" d="M66.6,44.6l-3.4,3.2c-0.5,0.4-0.5,1.1,0,1.6l3.2,3.4c0.4,0.5,1.1,0.5,1.6,0l3.4-3.2c0.5-0.4,0.5-1.1,0-1.6
		l-3.2-3.4C67.7,44.2,67,44.1,66.6,44.6z"/>
	<path class="st0" d="M44.1,32.6l5.5-5.3c0.7-0.7,0.8-1.9,0.1-2.6l-5.3-5.5c-0.7-0.7-1.9-0.8-2.6-0.1l-5.5,5.3
		c-0.7,0.7-0.8,1.9-0.1,2.6l5.3,5.5C42.2,33.2,43.4,33.3,44.1,32.6z"/>
	<path class="st0" d="M55.8,24.3l12.7,13.3c1.7,1.8,4.5,1.9,6.3,0.2l13.3-12.7c1.8-1.7,1.9-4.5,0.2-6.3L75.6,5.6
		c-1.7-1.8-4.5-1.9-6.3-0.2L55.9,18.1C54.2,19.7,54.1,22.6,55.8,24.3z"/>
	<path class="st1" d="M105.4,25.6l14.2,14.9c1.9,2,5.1,2.1,7.1,0.2l14.9-14.2c2-1.9,2.1-5.1,0.2-7.1L127.6,4.6
		c-1.9-2-5.1-2.1-7.1-0.2l-14.9,14.2C103.6,20.4,103.6,23.6,105.4,25.6z"/>
	<path class="st0" d="M149.9,28.2l5.6,5.9c0.7,0.8,2,0.8,2.8,0.1l5.9-5.6c0.8-0.7,0.8-2,0.1-2.8l-5.6-5.9c-0.7-0.8-2-0.8-2.8-0.1
		l-5.9,5.6C149.2,26.2,149.1,27.4,149.9,28.2z"/>
	<path class="st0" d="M173,102l18.1,19.1c1.1,1.1,1.9,2.4,2.4,3.7c2.3-8.1,3.6-16.4,3.9-24.7c0.7-24.9-8.2-50.2-26.7-69.7
		l-17.8,16.8l-8.5,8c11.6,12.2,17.1,27.9,16.8,43.5C165.3,97.6,169.9,98.7,173,102z"/>
	<path class="st0" d="M135.7,43.5c-0.5-0.5-1.3-0.5-1.8,0l-3.9,3.7c-0.5,0.5-0.5,1.3,0,1.8l3.7,3.9c0.5,0.5,1.3,0.5,1.8,0l3.9-3.7
		c0.5-0.5,0.5-1.3,0-1.8L135.7,43.5z"/>
	<path class="st0" d="M87.9,9l5.6,5.9c0.8,0.8,2,0.8,2.8,0.1l5.9-5.6c1-0.8,1.3-2.2,0.1-2.8l-5.6-5.9c-0.8-0.8-2-0.8-2.8-0.1L88,6.2
		C87.2,6.9,87.2,8.2,87.9,9z"/>
	<path class="st0" d="M46,137.3l-2.9-3c-0.4-0.4-1-0.4-1.4,0l-3,2.9c-0.4,0.4-0.4,1,0,1.4l2.9,3c0.4,0.4,1,0.4,1.4,0l3-2.9
		C46.4,138.4,46.4,137.7,46,137.3z"/>
	<path class="st0" d="M29.9,150.7l-4.1-4.3c-0.5-0.6-1.5-0.6-2-0.1l-4.3,4.1c-0.6,0.5-0.6,1.5-0.1,2l4.1,4.3c0.5,0.6,1.5,0.6,2,0.1
		l4.3-4.1C30.4,152.2,30.5,151.3,29.9,150.7z"/>
	<path class="st0" d="M171.6,155.9c-4.7,4.5-12.2,4.3-16.7-0.4L142.1,142c-24.6,23.3-63.4,22.3-86.7-2.3l-8.5,8l-17.8,16.8
		c18.5,19.5,43.2,29.7,68.2,30.4c24.9,0.7,50.2-8.2,69.7-26.7c8.4-8,15.1-17.2,20.1-27L171.6,155.9z"/>
	<path class="st0" d="M22.2,86.3l-7.2-7.6c-1-1-2.6-1.1-3.6-0.1l-7.6,7.2c-1,1-1.1,2.6-0.1,3.6l7.2,7.6c1,1,2.6,1.1,3.6,0.1l7.6-7.2
		C23.2,88.9,23.2,87.3,22.2,86.3z"/>
	<path class="st0" d="M62.1,122.1l5.5-5.3c0.7-0.7,0.8-1.9,0.1-2.6l-5.3-5.5c-0.7-0.7-1.9-0.8-2.6-0.1l-5.5,5.3
		c-0.7,0.7-0.8,1.9-0.1,2.6l5.3,5.5C60.2,122.7,61.4,122.8,62.1,122.1z"/>
	<path class="st2" d="M43.3,117.4l-14.2-14.9c-1.9-2-5.1-2.1-7-0.2L7.1,116.4c-2,1.9-2.1,5.1-0.2,7l14.2,14.9c1.9,2,5.1,2.1,7,0.2
		l14.9-14.2C45.1,122.6,45.1,119.4,43.3,117.4z"/>
	<path class="st0" d="M71.9,100.3l11.1-10.5c1.5-1.4,1.5-3.8,0.1-5.2L72.6,73.5c-1.4-1.5-3.8-1.5-5.2-0.1L56.3,83.9
		c-1.5,1.4-1.5,3.8-0.1,5.2l10.5,11.1C68,101.7,70.4,101.7,71.9,100.3z"/>
	<path class="st0" d="M59.5,58.6"/>
	<path class="st0" d="M76.4,59.1"/>
	<path class="st0" d="M102.6,86.7"/>
	<path class="st0" d="M102.1,103.6"/>
	<path class="st0" d="M122.6,125.2"/>
	<path class="st0" d="M139.6,130.8"/>
	<path class="st0" d="M96.9,103"/>
	<path class="st0" d="M97.4,86.4"/>
	<path class="st0" d="M76.4,64.2"/>
	<path class="st0" d="M59.8,63.8"/>
	<path class="st0" d="M48,95.5c-0.4-0.4-0.9-0.4-1.3,0l-2.8,2.6c-0.4,0.4-0.4,0.9,0,1.3l2.6,2.8c0.4,0.4,0.9,0.4,1.3,0l2.8-2.6
		c0.4-0.4,0.4-0.9,0-1.3L48,95.5z"/>
	<path class="st0" d="M156.8,152.4l-16.9-17.9c-3.5-3.7-3.3-9.5,0.3-13l17.9-16.9c3.7-3.5,9.5-3.3,13,0.3l16.9,17.9
		c3.5,3.7,3.3,9.5-0.3,13l-17.9,16.9C166.2,156.2,160.3,156.1,156.8,152.4z"/>
	<path class="st3" d="M91.3,148.6l-14.2-15c-3.5-3.7-3.3-9.5,0.3-13l15-14.2c3.7-3.5,9.5-3.3,13,0.3l14.2,15c3.5,3.7,3.3,9.5-0.3,13
		l-15,14.2C100.6,152.4,94.8,152.3,91.3,148.6z"/>
	<path class="st4" d="M93.8,83.1L79.5,68c-3.5-3.7-3.3-9.5,0.3-13l15-14.2c3.7-3.5,9.5-3.3,13,0.3l14.2,15c3.5,3.7,3.3,9.5-0.3,13
		l-15,14.2C103.1,86.9,97.2,86.7,93.8,83.1z"/>
	<path class="st5" d="M28.2,82L13.9,67c-3.5-3.7-3.3-9.5,0.3-13l15-14.2c3.7-3.5,9.5-3.3,13,0.3l14.2,15c3.5,3.7,3.3,9.5-0.3,13
		l-15,14.2C37.5,85.8,31.6,85.7,28.2,82z"/>
</g>
<path class="st0" d="M117.1,98.1l12.7,13.3c1.7,1.8,4.5,1.8,6.3,0.2l13.3-12.7c1.8-1.7,1.8-4.5,0.2-6.3l-12.7-13.3
	c-1.7-1.8-4.5-1.8-6.3-0.2l-13.3,12.7C115.5,93.5,115.4,96.3,117.1,98.1z"/>
<g>
	<g class="st6">
		<path d="M148.1,136.2v-1l1.2-1.2c2.9-2.8,4.3-4.3,4.3-6c0-1.2-0.6-2.2-2.3-2.2c-1,0-1.9,0.5-2.4,1l-0.5-1.1
			c0.8-0.7,1.9-1.2,3.3-1.2c2.5,0,3.5,1.7,3.5,3.3c0,2.1-1.5,3.8-4,6.2l-0.9,0.9v0h5.2v1.3H148.1z"/>
		<path d="M164.8,130.3c0,3.9-1.5,6.1-4,6.1c-2.2,0-3.8-2.1-3.8-5.9c0-3.9,1.7-6,4-6C163.4,124.5,164.8,126.6,164.8,130.3z
			 M158.6,130.5c0,3,0.9,4.7,2.3,4.7c1.6,0,2.4-1.9,2.4-4.8c0-2.8-0.7-4.7-2.3-4.7C159.6,125.7,158.6,127.3,158.6,130.5z"/>
		<path d="M169.6,126.1L169.6,126.1l-2,1.1l-0.3-1.2l2.5-1.3h1.3v11.5h-1.5V126.1z"/>
		<path d="M182.8,124.6v1l-5,10.5h-1.6l5-10.2v0h-5.6v-1.3H182.8z"/>
	</g>
	<g>
		<g>
			<path class="st7" d="M147.1,135.2v-1l1.2-1.2c2.9-2.8,4.3-4.3,4.3-6c0-1.2-0.6-2.2-2.3-2.2c-1,0-1.9,0.5-2.4,1l-0.5-1.1
				c0.8-0.7,1.9-1.2,3.3-1.2c2.5,0,3.5,1.7,3.5,3.3c0,2.1-1.5,3.8-4,6.2l-0.9,0.9v0h5.2v1.3H147.1z"/>
			<path class="st7" d="M163.8,129.3c0,3.9-1.5,6.1-4,6.1c-2.2,0-3.8-2.1-3.8-5.9c0-3.9,1.7-6,4-6
				C162.4,123.5,163.8,125.6,163.8,129.3z M157.6,129.5c0,3,0.9,4.7,2.3,4.7c1.6,0,2.4-1.9,2.4-4.8c0-2.8-0.7-4.7-2.3-4.7
				C158.6,124.7,157.6,126.3,157.6,129.5z"/>
			<path class="st7" d="M168.6,125.1L168.6,125.1l-2,1.1l-0.3-1.2l2.5-1.3h1.3v11.5h-1.5V125.1z"/>
			<path class="st7" d="M181.8,123.6v1l-5,10.5h-1.6l5-10.2v0h-5.6v-1.3H181.8z"/>
		</g>
	</g>
</g>
<g>
	<path class="st1" d="M2.7,243.2c0.4,1.7,1.3,3.1,2.7,4.2c1.4,1.1,2.9,1.6,4.6,1.6c2.1,0,3.9-0.7,5.3-2.2c1.4-1.4,2.1-3.2,2.1-5.2
		c0-1.8-0.5-3.3-1.5-4.6c-1-1.3-2.3-2.1-3.9-2.5l-4-1c-1.9-0.5-3.5-1.6-4.7-3.1c-1.2-1.6-1.8-3.4-1.8-5.4c0-2.4,0.9-4.5,2.6-6.2
		c1.7-1.7,3.8-2.6,6.2-2.6c1.6,0,3,0.4,4.4,1.2c1.4,0.8,2.5,1.9,3.2,3.2l-2.4,1.4c-1.1-2-2.9-3-5.2-3c-1.7,0-3.1,0.6-4.3,1.8
		s-1.8,2.6-1.8,4.2c0,1.4,0.4,2.6,1.3,3.7c0.8,1.1,1.9,1.8,3.2,2.1l4,1c2.2,0.6,4,1.8,5.4,3.6c1.4,1.8,2.1,3.9,2.1,6.2
		c0,2.9-1,5.3-3,7.2c-2,2-4.4,3-7.2,3c-2.3,0-4.4-0.7-6.3-2.2c-1.8-1.5-3-3.3-3.6-5.6L2.7,243.2z"/>
	<path class="st1" d="M28.7,248.4h13.1v2.8H25.9v-20.9h-4.2l1.7-2.8h2.6v-11h15.9v2.8H28.7v8.2H37v2.8h-8.3V248.4z"/>
	<path class="st1" d="M57.6,229.9l12.8-14v35.3h-2.8v-28.1l-10,10.9l-10-10.9v28.1h-2.8v-35.3L57.6,229.9z"/>
	<path class="st1" d="M73.5,251.2v-34.7h2.8v34.7H73.5z"/>
	<path class="st1" d="M82.2,226.5v24.7h-2.8v-35.3l14.4,25.4v-24.7h2.8v35.4L82.2,226.5z"/>
	<path class="st1" d="M105.3,241.4v9.8h-2.8v-9.8h-3.6l1.7-2.8h1.9v-13.8c0-1.6,0.4-3.1,1.2-4.5c0.8-1.4,1.9-2.5,3.3-3.3
		c1.4-0.8,2.9-1.2,4.5-1.2c1.6,0,3.1,0.4,4.5,1.2c1.4,0.8,2.5,1.9,3.3,3.3c0.8,1.4,1.2,2.9,1.2,4.5v26.4h-2.8v-9.8H105.3z
		 M104.1,213.8l11.9-7.3l1.5,2.9l-12.8,5.6L104.1,213.8z M105.3,238.6h12.4v-13.8c0-1.2-0.3-2.3-0.9-3.3c-0.6-1-1.4-1.7-2.3-2.2
		c-1-0.5-2-0.8-3-0.8c-1.8,0-3.3,0.6-4.5,1.9c-1.2,1.3-1.7,2.7-1.7,4.3V238.6z"/>
	<path class="st1" d="M133.1,216.5c2.2,0,4.3,0.6,6.2,1.7c1.9,1.1,3.4,2.6,4.5,4.5c1.1,1.9,1.7,4,1.7,6.2c0,1.9-0.4,3.7-1.3,5.4
		c-0.9,1.7-2,3.2-3.5,4.3c-1.5,1.2-3.1,1.9-4.9,2.3l8.7,10.2h-3.7l-8.4-9.9h-2.6v9.9H127v-31.9h-4.2l1.7-2.8H133.1z M129.8,238.5
		h3.3c2.9,0,5.2-1,6.9-2.9c1.8-1.9,2.7-4.1,2.7-6.7c0-1.9-0.5-3.6-1.4-5.1c-0.9-1.5-2.1-2.6-3.6-3.4c-1.5-0.8-3-1.2-4.6-1.2h-3.3
		V238.5z"/>
	<path class="st1" d="M147.8,251.2v-34.7h2.8v34.7H147.8z"/>
	<path class="st1" d="M170.9,215.8c3.3,0,6.3,0.8,9.1,2.4c2.8,1.6,4.9,3.8,6.6,6.5c1.6,2.7,2.4,5.8,2.4,9.1s-0.8,6.3-2.4,9.1
		c-1.6,2.8-3.8,4.9-6.6,6.6c-2.8,1.6-5.8,2.4-9.1,2.4c-3.3,0-6.3-0.8-9.1-2.4c-2.7-1.6-4.9-3.8-6.5-6.6c-1.6-2.8-2.4-5.8-2.4-9.1
		c0-2.4,0.5-4.7,1.4-6.9c0.9-2.2,2.2-4.2,3.9-5.8c1.7-1.7,3.6-3,5.8-3.9C166.2,216.3,168.5,215.8,170.9,215.8z M170.9,218.6
		c-2.7,0-5.3,0.7-7.6,2c-2.3,1.3-4.2,3.2-5.6,5.6c-1.4,2.4-2,4.9-2,7.6c0,2.8,0.7,5.3,2,7.7c1.4,2.3,3.2,4.2,5.6,5.6
		c2.3,1.4,4.9,2,7.6,2c2.8,0,5.3-0.7,7.7-2c2.3-1.4,4.2-3.2,5.6-5.6c1.4-2.3,2-4.9,2-7.7c0-2.7-0.7-5.2-2-7.6
		c-1.4-2.4-3.2-4.2-5.6-5.6C176.2,219.3,173.7,218.6,170.9,218.6z"/>
	<path class="st1" d="M193.2,243.2c0.4,1.7,1.3,3.1,2.7,4.2c1.4,1.1,2.9,1.6,4.6,1.6c2.1,0,3.9-0.7,5.3-2.2c1.4-1.4,2.1-3.2,2.1-5.2
		c0-1.8-0.5-3.3-1.5-4.6c-1-1.3-2.3-2.1-3.9-2.5l-4-1c-1.9-0.5-3.5-1.6-4.7-3.1c-1.2-1.6-1.8-3.4-1.8-5.4c0-2.4,0.9-4.5,2.6-6.2
		c1.7-1.7,3.8-2.6,6.2-2.6c1.6,0,3,0.4,4.4,1.2c1.4,0.8,2.5,1.9,3.2,3.2l-2.4,1.4c-1.1-2-2.9-3-5.2-3c-1.7,0-3.1,0.6-4.3,1.8
		s-1.8,2.6-1.8,4.2c0,1.4,0.4,2.6,1.3,3.7c0.8,1.1,1.9,1.8,3.2,2.1l4,1c2.2,0.6,4,1.8,5.4,3.6c1.4,1.8,2.1,3.9,2.1,6.2
		c0,2.9-1,5.3-3,7.2c-2,2-4.4,3-7.2,3c-2.3,0-4.4-0.7-6.3-2.2c-1.8-1.5-3-3.3-3.6-5.6L193.2,243.2z"/>
</g>
<g>
	<path class="st1" d="M5.5,331.3c1,4.3,3.2,7.7,6.5,10.3c3.3,2.6,7.1,3.9,11.3,3.9c5.2,0,9.5-1.8,13-5.3c3.5-3.5,5.2-7.8,5.2-12.8
		c0-4.4-1.3-8.2-3.8-11.3s-5.7-5.2-9.6-6.2l-9.8-2.5c-4.8-1.3-8.6-3.8-11.6-7.7c-3-3.9-4.4-8.3-4.4-13.2c0-6,2.1-11.1,6.3-15.3
		c4.2-4.2,9.3-6.3,15.3-6.3c3.8,0,7.4,1,10.8,2.9c3.4,2,6,4.6,7.9,7.8l-6,3.4c-2.8-4.8-7-7.3-12.8-7.3c-4.1,0-7.6,1.5-10.5,4.4
		c-2.9,3-4.3,6.4-4.3,10.3c0,3.4,1,6.5,3.1,9.1c2.1,2.7,4.7,4.4,7.8,5.1l9.8,2.5c5.4,1.4,9.9,4.4,13.3,8.9c3.5,4.5,5.2,9.6,5.2,15.3
		c0,7-2.5,12.9-7.4,17.8c-4.9,4.8-10.8,7.3-17.6,7.3c-5.8,0-10.9-1.8-15.4-5.4c-4.5-3.6-7.5-8.2-8.9-13.8L5.5,331.3z"/>
	<path class="st1" d="M63.6,344.2h32.2v6.9H56.7v-51.2H46.3l4.1-6.9h6.3v-27h39.1v6.9H63.6V293H84v6.9H63.6V344.2z"/>
	<path class="st1" d="M142.2,344.2c-5.4,5.6-11.9,8.4-19.5,8.4c-7.3,0-13.7-2.7-19-8c-5.3-5.3-8-11.7-8-19c0-7.5,2.7-13.9,8-19.2
		c5.3-5.3,11.7-7.9,19-7.9c7.6,0,14.1,2.8,19.5,8.4l7.5-7v51.2L142.2,344.2z M122.7,305.4c-5.7,0-10.5,1.9-14.3,5.8
		c-3.9,3.9-5.8,8.7-5.8,14.3c0,5.7,1.9,10.5,5.8,14.3c3.9,3.9,8.7,5.8,14.3,5.8c5.6,0,10.3-2,14.3-5.9c3.9-3.9,5.9-8.7,5.9-14.3
		c0-5.6-2-10.3-5.9-14.3C133.1,307.4,128.3,305.4,122.7,305.4z"/>
	<path class="st1" d="M153.8,266h16.5c6,0,11.6,1.1,16.7,3.3c5.1,2.2,9.6,5.2,13.5,9.1c3.8,3.8,6.9,8.3,9.1,13.5
		c2.2,5.1,3.3,10.7,3.3,16.7c0,7.7-1.9,14.8-5.7,21.3c-3.8,6.6-9,11.7-15.5,15.5c-6.6,3.8-13.7,5.7-21.3,5.7h-10.4v-78.2h-10.3
		L153.8,266z M170.3,344.2c6.5,0,12.5-1.6,18-4.8c5.5-3.2,9.8-7.5,13-13c3.2-5.5,4.8-11.5,4.8-17.9c0-4.8-1-9.5-2.9-14
		c-1.9-4.5-4.4-8.2-7.5-11.3c-3.1-3.1-6.9-5.6-11.3-7.5c-4.5-1.9-9.1-2.9-14-2.9h-3.5v71.3H170.3z"/>
</g>
</svg>
